<?xml version="1.0" encoding="utf-8"?>
<!-- Generator: Adobe Illustrator 16.0.0, SVG Export Plug-In . SVG Version: 6.00 Build 0)  -->
<!DOCTYPE svg PUBLIC "-//W3C//DTD SVG 1.1//EN" "http://www.w3.org/Graphics/SVG/1.1/DTD/svg11.dtd">
<svg version="1.1" id="logo" xmlns="http://www.w3.org/2000/svg" xmlns:xlink="http://www.w3.org/1999/xlink" x="0px" y="0px"
	 width="240px" height="60px" viewBox="0 0 240 60" enable-background="new 0 0 240 60" xml:space="preserve">
<g>
	<path fill="#004893" d="M52.734,42.113c1.682,1.035,4.139,1.896,6.726,1.896c3.836,0,6.08-2.026,6.08-4.956
		c0-2.717-1.553-4.269-5.476-5.778c-4.742-1.682-7.674-4.139-7.674-8.236c0-4.525,3.75-7.89,9.399-7.89
		c2.974,0,5.13,0.692,6.423,1.424l-1.035,3.062c-0.948-0.519-2.888-1.38-5.518-1.38c-3.967,0-5.475,2.372-5.475,4.354
		c0,2.716,1.767,4.053,5.776,5.604c4.916,1.897,7.416,4.268,7.416,8.537c0,4.483-3.32,8.363-10.174,8.363
		c-2.802,0-5.864-0.817-7.416-1.854L52.734,42.113z"/>
	<path fill="#004893" d="M74.374,16.074h3.794v13.019h0.087c0.604-1.077,1.552-2.027,2.716-2.673
		c1.121-0.646,2.457-1.077,3.879-1.077c2.803,0,7.287,1.723,7.287,8.924v12.416h-3.794V34.697c0-3.362-1.25-6.207-4.829-6.207
		c-2.458,0-4.398,1.723-5.087,3.794c-0.215,0.517-0.258,1.077-0.258,1.811v12.588h-3.794V16.074z"/>
	<path fill="#004893" d="M109.853,46.683l-0.302-2.629h-0.128c-1.164,1.638-3.406,3.104-6.381,3.104c-4.225,0-6.38-2.977-6.38-5.994
		c0-5.042,4.483-7.802,12.545-7.759v-0.431c0-1.725-0.474-4.829-4.742-4.829c-1.939,0-3.966,0.603-5.432,1.552l-0.863-2.501
		c1.725-1.121,4.226-1.853,6.855-1.853c6.38,0,7.932,4.354,7.932,8.537v7.802c0,1.81,0.086,3.578,0.345,5.001H109.853z
		 M109.292,36.033c-4.138-0.085-8.838,0.648-8.838,4.701c0,2.455,1.638,3.62,3.578,3.62c2.716,0,4.441-1.725,5.045-3.492
		c0.129-0.389,0.215-0.819,0.215-1.207V36.033z"/>
	<path fill="#004893" d="M137.098,16.074v25.221c0,1.854,0.044,3.965,0.172,5.388h-3.405l-0.173-3.622h-0.086
		c-1.164,2.329-3.707,4.097-7.114,4.097c-5.043,0-8.923-4.269-8.923-10.605c-0.043-6.94,4.268-11.209,9.354-11.209
		c3.19,0,5.346,1.508,6.294,3.189h0.087V16.074H137.098z M133.304,34.311c0-0.475-0.043-1.121-0.173-1.596
		c-0.561-2.416-2.63-4.398-5.475-4.398c-3.923,0-6.252,3.449-6.252,8.062c0,4.224,2.069,7.717,6.165,7.717
		c2.544,0,4.872-1.682,5.562-4.528c0.13-0.514,0.173-1.032,0.173-1.637V34.311z"/>
	<path fill="#004893" d="M145.502,36.939c0.085,5.13,3.363,7.241,7.155,7.241c2.717,0,4.355-0.472,5.779-1.076l0.646,2.716
		c-1.338,0.603-3.621,1.293-6.94,1.293c-6.424,0-10.262-4.225-10.262-10.52c0-6.294,3.707-11.251,9.786-11.251
		c6.812,0,8.624,5.992,8.624,9.829c0,0.776-0.087,1.38-0.13,1.768H145.502z M156.624,34.223c0.045-2.413-0.99-6.166-5.259-6.166
		c-3.837,0-5.518,3.537-5.82,6.166H156.624z"/>
	<path fill="#004893" d="M176.196,19.954c0.041,1.294-0.906,2.328-2.416,2.328c-1.337,0-2.284-1.033-2.284-2.328
		c0-1.338,0.992-2.372,2.37-2.372C175.29,17.582,176.196,18.615,176.196,19.954z M171.97,46.683V25.815h3.794v20.867H171.97z"/>
	<path fill="#004893" d="M182.057,31.464c0-2.156-0.043-3.923-0.172-5.648h3.363l0.213,3.451h0.088
		c1.033-1.984,3.451-3.923,6.897-3.923c2.89,0,7.374,1.723,7.374,8.88v12.46h-3.794V34.655c0-3.363-1.251-6.165-4.831-6.165
		c-2.499,0-4.438,1.767-5.086,3.879c-0.171,0.476-0.259,1.121-0.259,1.768v12.546h-3.794V31.464z"/>
	<path fill="#004893" d="M206.37,46.683V28.706h-2.933v-2.89h2.933v-0.991c0-2.93,0.644-5.603,2.413-7.284
		c1.422-1.38,3.321-1.941,5.086-1.941c1.339,0,2.501,0.301,3.237,0.602l-0.519,2.932c-0.561-0.259-1.334-0.473-2.413-0.473
		c-3.237,0-4.053,2.844-4.053,6.034v1.121h5.044v2.89h-5.044v17.977H206.37z"/>
	<path fill="#004893" d="M236.89,36.077c0,7.717-5.345,11.08-10.389,11.08c-5.646,0-10.001-4.139-10.001-10.734
		c0-6.985,4.571-11.08,10.348-11.08C232.842,25.343,236.89,29.697,236.89,36.077z M220.336,36.293c0,4.569,2.631,8.018,6.34,8.018
		c3.623,0,6.337-3.404,6.337-8.104c0-3.536-1.77-8.02-6.253-8.02S220.336,32.325,220.336,36.293z"/>
</g>
<path fill="none" d="M23.113,24.618c-0.077,0.077-0.15,0.159-0.218,0.242c-0.006,0.007-0.011,0.015-0.017,0.021
	c-0.063,0.08-0.125,0.161-0.182,0.245c-0.011,0.017-0.02,0.034-0.031,0.052c-0.049,0.076-0.097,0.154-0.141,0.234
	c-0.013,0.024-0.023,0.051-0.036,0.076c-0.038,0.073-0.076,0.148-0.109,0.226c-0.016,0.039-0.028,0.079-0.043,0.119
	c-0.025,0.065-0.051,0.132-0.073,0.199c-0.015,0.051-0.025,0.104-0.04,0.154c-0.015,0.059-0.033,0.118-0.044,0.179
	c-0.014,0.065-0.021,0.132-0.031,0.198c-0.007,0.049-0.016,0.096-0.021,0.146c-0.012,0.116-0.018,0.234-0.018,0.354
	c0,1.109,0.519,2.095,1.326,2.733v5.489c0,0.594,0.486,1.081,1.08,1.081h1.018V23.581c-0.946,0.017-1.798,0.408-2.418,1.033
	C23.115,24.616,23.114,24.616,23.113,24.618z"/>
<path fill="#004893" d="M24.515,36.368c-0.594,0-1.08-0.487-1.08-1.081v-5.489c-0.807-0.639-1.326-1.624-1.326-2.733
	c0-0.119,0.006-0.237,0.018-0.354c0.005-0.051,0.015-0.098,0.021-0.146c0.01-0.066,0.017-0.133,0.031-0.198
	c0.012-0.061,0.029-0.12,0.044-0.179c0.014-0.051,0.024-0.104,0.04-0.154c0.022-0.067,0.047-0.134,0.073-0.199
	c0.015-0.04,0.027-0.08,0.043-0.119c0.033-0.077,0.071-0.152,0.109-0.226c0.013-0.025,0.023-0.052,0.036-0.076
	c0.044-0.08,0.092-0.158,0.141-0.234c0.011-0.018,0.02-0.035,0.031-0.052c0.057-0.084,0.118-0.165,0.182-0.245
	c0.005-0.007,0.011-0.015,0.017-0.021c0.068-0.083,0.141-0.165,0.218-0.242c0.001-0.002,0.002-0.002,0.002-0.004
	c0.62-0.625,1.472-1.017,2.418-1.033V3.35c-0.28,0.007-0.558,0.098-0.774,0.284C18.466,9.072,13.999,10.66,7.5,10.81
	c-0.597,0.015-1.082,0.497-1.082,1.093c0,3.121,0,12.428,0,20.388c0,9.911,6.632,16.324,18.253,24.134
	c0.238,0.161,0.549,0.234,0.861,0.24V36.368H24.515z"/>
<path fill="#0878A4" d="M25.541,23.58c0.004,0,0.008-0.001,0.011-0.001c0.016,0,0.03-0.002,0.045-0.002
	c1.099,0,2.077,0.509,2.716,1.302l14.13-14.131c-1.943-0.101-3.713-0.354-5.426-0.83L25.597,21.339v-4.586l8.087-8.087
	c-1.283-0.609-2.575-1.374-3.927-2.329l-4.16,4.16V5.911l1.571-1.571c-0.284-0.237-0.568-0.471-0.859-0.724
	c-0.211-0.183-0.482-0.276-0.757-0.288v0.019c-0.006,0-0.012,0.003-0.019,0.003v20.231C25.536,23.581,25.538,23.58,25.541,23.58z"/>
<path fill="#0878A4" d="M44.648,19.387V13.13l-16.89,16.89v5.268c0,0.594-0.487,1.081-1.081,1.081h-1.126h-0.019v20.296
	c0.021,0.001,0.042,0.008,0.063,0.008v-0.026c0.291-0.015,0.577-0.09,0.799-0.238c10.523-7.073,16.956-13,18.077-21.417
	L25.597,53.866v-4.587l19.052-19.05v-6.257L25.597,43.025v-4.587L44.648,19.387z"/>
</svg>
